<svg width="43" height="42" viewBox="0 0 43 42" fill="none" xmlns="http://www.w3.org/2000/svg">
<path d="M15.7677 0.5C15.8361 2.64288 15.6887 3.50262 15.0579 4.3532C6.54753 6.30195 2.82057 7.68216 0 11.1977M26.0598 0.5C25.7726 2.26659 25.7402 3.20128 26.871 4.3532C36.673 6.6068 40.5194 8.04496 41.8275 11.1977M24.3867 12.3638C25.0606 18.2586 26.9614 19.8032 32.5494 20.0195M17.4408 12.3638C16.8882 18.0998 15.0153 19.6621 9.3795 20.0195M2.2308 26.7119C3.85784 25.2304 4.14596 23.6741 3.9039 20.0195C4.10597 24.777 4.73252 27.3339 6.8445 31.6805C8.69783 34.6809 8.98213 37.1674 9.3795 41.7191M39.9009 26.7119C38.0552 24.9151 37.6368 23.5752 37.9236 20.6279C37.8153 24.9801 37.1476 27.3977 35.1858 31.6805C33.3435 35.0225 32.8471 37.2781 32.5494 41.7191M20.8884 41.7191V31.6805M20.8884 27.7766V25.2416" stroke="white" stroke-width="1.5"/>
</svg>
