<svg width="48" height="47" viewBox="0 0 48 47" fill="none" xmlns="http://www.w3.org/2000/svg">
<path d="M19.1694 1C16.9837 1.02191 16.0815 1.59844 14.8148 3.22172C5.7573 4.30309 3.05432 6.86965 4.41718 16.552C1.74464 20.0216 1.28356 22.0917 2.01773 25.9721M10.1048 15.8411C10.4107 18.1032 10.8063 18.9734 11.7933 20.0179C14.1178 23.0056 20.1834 23.993 24.146 20.0179C27.6597 23.1467 32.7379 23.7109 36.4988 20.0179C37.3761 18.6923 37.7241 17.8126 37.9207 15.8411M7.43872 29.3491C9.69928 26.2057 10.3528 24.3293 10.638 20.8177M37.9207 20.8177C37.8625 24.4939 38.5018 26.3639 40.7645 29.3491M46.2744 25.9721C46.423 21.2794 45.8193 19.271 43.786 16.552C45.367 7.4442 42.9128 4.76939 34.0993 3.22172C33.056 1.74059 32.1475 1.26788 30.0114 1M10.638 25.21C10.638 25.21 12.2016 29.4095 12.46 32.23C12.7399 35.2861 11.7933 40.06 11.7933 40.06L17.41 46M30.82 46L35.86 40.69C35.86 40.69 35.4773 35.5116 35.86 32.23C36.1849 29.443 37.39 25.21 37.39 25.21" stroke="white" stroke-width="1.5" stroke-linecap="round" stroke-linejoin="round"/>
</svg>
