<svg width="24" height="24" viewBox="0 0 24 24" fill="none" xmlns="http://www.w3.org/2000/svg">
<mask id="mask0_411_1849" style="mask-type:alpha" maskUnits="userSpaceOnUse" x="0" y="0" width="24" height="24">
<rect width="23.0256" height="23.0256" fill="#D9D9D9"/>
</mask>
<g mask="url(#mask0_411_1849)">
<path d="M11.5125 23.188C10.1853 23.188 8.93807 22.9362 7.7708 22.4325C6.60353 21.9288 5.58816 21.2452 4.7247 20.3818C3.86124 19.5183 3.17767 18.5029 2.67398 17.3357C2.1703 16.1684 1.91846 14.9212 1.91846 13.594C1.91846 12.2668 2.1703 11.0196 2.67398 9.85234C3.17767 8.68507 3.86124 7.6697 4.7247 6.80624C5.58816 5.94278 6.60353 5.25921 7.7708 4.75553C8.93807 4.25184 10.1853 4 11.5125 4C12.8396 4 14.0868 4.25184 15.2541 4.75553C16.4214 5.25921 17.4368 5.94278 18.3002 6.80624C19.1637 7.6697 19.8472 8.68507 20.3509 9.85234C20.8546 11.0196 21.1065 12.2668 21.1065 13.594C21.1065 14.9212 20.8546 16.1684 20.3509 17.3357C19.8472 18.5029 19.1637 19.5183 18.3002 20.3818C17.4368 21.2452 16.4214 21.9288 15.2541 22.4325C14.0868 22.9362 12.8396 23.188 11.5125 23.188ZM11.5125 21.2692C13.6551 21.2692 15.47 20.5257 16.9571 19.0386C18.4441 17.5515 19.1877 15.7367 19.1877 13.594C19.1877 11.4513 18.4441 9.63648 16.9571 8.14941C15.47 6.66234 13.6551 5.9188 11.5125 5.9188C9.3698 5.9188 7.55493 6.66234 6.06786 8.14941C4.58079 9.63648 3.83726 11.4513 3.83726 13.594C3.83726 15.7367 4.58079 17.5515 6.06786 19.0386C7.55493 20.5257 9.3698 21.2692 11.5125 21.2692ZM11.5125 19.3504C9.91346 19.3504 8.55431 18.7908 7.43501 17.6714C6.31571 16.5521 5.75606 15.193 5.75606 13.594C5.75606 11.995 6.31571 10.6359 7.43501 9.51655C8.55431 8.39725 9.91346 7.8376 11.5125 7.8376C13.1115 7.8376 14.4706 8.39725 15.5899 9.51655C16.7092 10.6359 17.2689 11.995 17.2689 13.594C17.2689 15.193 16.7092 16.5521 15.5899 17.6714C14.4706 18.7908 13.1115 19.3504 11.5125 19.3504ZM11.5125 17.4316C12.5678 17.4316 13.4712 17.0558 14.2228 16.3043C14.9743 15.5528 15.3501 14.6493 15.3501 13.594C15.3501 12.5387 14.9743 11.6352 14.2228 10.8837C13.4712 10.1322 12.5678 9.7564 11.5125 9.7564C10.4571 9.7564 9.55368 10.1322 8.80215 10.8837C8.05062 11.6352 7.67486 12.5387 7.67486 13.594C7.67486 14.6493 8.05062 15.5528 8.80215 16.3043C9.55368 17.0558 10.4571 17.4316 11.5125 17.4316ZM11.5125 15.5128C10.9848 15.5128 10.5331 15.3249 10.1573 14.9492C9.78154 14.5734 9.59366 14.1217 9.59366 13.594C9.59366 13.0663 9.78154 12.6146 10.1573 12.2388C10.5331 11.8631 10.9848 11.6752 11.5125 11.6752C12.0401 11.6752 12.4918 11.8631 12.8676 12.2388C13.2434 12.6146 13.4313 13.0663 13.4313 13.594C13.4313 14.1217 13.2434 14.5734 12.8676 14.9492C12.4918 15.3249 12.0401 15.5128 11.5125 15.5128Z" fill="white"/>
</g>
</svg>
