<svg width="24" height="24" viewBox="0 0 24 24" fill="none" xmlns="http://www.w3.org/2000/svg">
<mask id="mask0_412_1853" style="mask-type:alpha" maskUnits="userSpaceOnUse" x="0" y="0" width="24" height="24">
<rect width="23.0256" height="23.0256" fill="#D9D9D9"/>
</mask>
<g mask="url(#mask0_412_1853)">
<path d="M11.5126 15.5951C10.4573 15.5951 9.55383 15.2194 8.8023 14.4678C8.05077 13.7163 7.675 12.8129 7.675 11.7575C7.675 10.7022 8.05077 9.79875 8.8023 9.04722C9.55383 8.29569 10.4573 7.91992 11.5126 7.91992C12.5679 7.91992 13.4714 8.29569 14.2229 9.04722C14.9744 9.79875 15.3502 10.7022 15.3502 11.7575C15.3502 12.8129 14.9744 13.7163 14.2229 14.4678C13.4714 15.2194 12.5679 15.5951 11.5126 15.5951ZM3.8374 23.2703V20.584C3.8374 20.0403 3.97731 19.5407 4.25714 19.0849C4.53696 18.6292 4.90873 18.2814 5.37244 18.0416C6.36382 17.5459 7.37119 17.1741 8.39455 16.9263C9.41791 16.6784 10.4573 16.5545 11.5126 16.5545C12.5679 16.5545 13.6073 16.6784 14.6307 16.9263C15.654 17.1741 16.6614 17.5459 17.6528 18.0416C18.1165 18.2814 18.4882 18.6292 18.7681 19.0849C19.0479 19.5407 19.1878 20.0403 19.1878 20.584V23.2703H3.8374ZM5.7562 21.3515H17.269V20.584C17.269 20.4081 17.225 20.2482 17.1371 20.1043C17.0491 19.9604 16.9332 19.8485 16.7893 19.7685C15.9258 19.3368 15.0544 19.013 14.1749 18.7971C13.2955 18.5813 12.408 18.4733 11.5126 18.4733C10.6172 18.4733 9.72972 18.5813 8.85027 18.7971C7.97082 19.013 7.09936 19.3368 6.2359 19.7685C6.09199 19.8485 5.97606 19.9604 5.88812 20.1043C5.80017 20.2482 5.7562 20.4081 5.7562 20.584V21.3515ZM11.5126 13.6763C12.0403 13.6763 12.492 13.4884 12.8678 13.1127C13.2435 12.7369 13.4314 12.2852 13.4314 11.7575C13.4314 11.2299 13.2435 10.7781 12.8678 10.4024C12.492 10.0266 12.0403 9.83872 11.5126 9.83872C10.9849 9.83872 10.5332 10.0266 10.1574 10.4024C9.78168 10.7781 9.5938 11.2299 9.5938 11.7575C9.5938 12.2852 9.78168 12.7369 10.1574 13.1127C10.5332 13.4884 10.9849 13.6763 11.5126 13.6763Z" fill="white"/>
</g>
</svg>
