<svg width="24" height="24" viewBox="0 0 24 24" fill="none" xmlns="http://www.w3.org/2000/svg">
<mask id="mask0_412_1863" style="mask-type:alpha" maskUnits="userSpaceOnUse" x="0" y="0" width="24" height="24">
<rect width="23.0256" height="23.0256" fill="#D9D9D9"/>
</mask>
<g mask="url(#mask0_412_1863)">
<path d="M5.75669 23.0267C5.22902 23.0267 4.7773 22.8388 4.40154 22.4631C4.02577 22.0873 3.83789 21.6356 3.83789 21.1079V10.5545C3.83789 10.0269 4.02577 9.57513 4.40154 9.19937C4.7773 8.8236 5.22902 8.63572 5.75669 8.63572H8.63489V10.5545H5.75669V21.1079H17.2695V10.5545H14.3913V8.63572H17.2695C17.7972 8.63572 18.2489 8.8236 18.6246 9.19937C19.0004 9.57513 19.1883 10.0269 19.1883 10.5545V21.1079C19.1883 21.6356 19.0004 22.0873 18.6246 22.4631C18.2489 22.8388 17.7972 23.0267 17.2695 23.0267H5.75669ZM10.5537 16.3109V5.58963L9.01865 7.12467L7.67549 5.75752L11.5131 1.91992L15.3507 5.75752L14.0075 7.12467L12.4725 5.58963V16.3109H10.5537Z" fill="white"/>
</g>
</svg>
