<svg width="21" height="20" viewBox="0 0 21 20" fill="none" xmlns="http://www.w3.org/2000/svg">
<path d="M6.00521 19.3448C4.4181 20.1792 3.02508 19.1689 3.32983 17.4004L3.90844 14.0267C4.02997 13.3193 3.67446 12.2256 3.15933 11.725L0.708869 9.33619C-0.575307 8.08465 -0.0438712 6.44855 1.73185 6.18922L5.11828 5.69767C5.82927 5.59428 6.75795 4.91953 7.07723 4.27563L8.59177 1.20663C9.38439 -0.40221 11.1057 -0.40221 11.8984 1.20663L13.4129 4.27563C13.7321 4.91953 14.6608 5.59426 15.3719 5.69767L18.7583 6.18922C20.534 6.4486 21.0655 8.08284 19.7813 9.33619L17.3308 11.725C16.8157 12.2256 16.4602 13.3193 16.5817 14.0267L17.1603 17.4004C17.4632 19.1671 16.072 20.1792 14.4849 19.3448L11.4559 17.7523C10.8192 17.4167 9.67103 17.4167 9.03442 17.7523L6.00521 19.3448Z" fill="#FFFF00"/>
</svg>
